<mxfile host="app.diagrams.net" modified="2022-09-15T07:13:24.936Z" agent="5.0 (X11; Linux x86_64) AppleWebKit/537.36 (KHTML, like Gecko) Chrome/102.0.5005.115 Safari/537.36" etag="xH6r3kTT3tGllWxNFA0S" version="17.1.3" type="github">
  <diagram id="BkTOFT6IgvxsWkJbgHJM" name="Page-1">
    <mxGraphModel dx="2062" dy="1158" grid="1" gridSize="10" guides="1" tooltips="1" connect="1" arrows="1" fold="1" page="1" pageScale="1" pageWidth="827" pageHeight="1169" math="0" shadow="0">
      <root>
        <mxCell id="0" />
        <mxCell id="1" parent="0" />
        <mxCell id="_dGtOHB_N1j4_Lg7Juu6-8" value="FuseTS&lt;br&gt;Python Library" style="html=1;outlineConnect=0;whiteSpace=wrap;fillColor=#f5f5f5;shape=mxgraph.archimate3.application;appType=comp;archiType=square;strokeColor=#666666;horizontal=1;verticalAlign=top;fontColor=#333333;" vertex="1" parent="1">
          <mxGeometry x="50" y="600" width="620" height="170" as="geometry" />
        </mxCell>
        <mxCell id="_dGtOHB_N1j4_Lg7Juu6-21" style="edgeStyle=orthogonalEdgeStyle;rounded=0;orthogonalLoop=1;jettySize=auto;html=1;" edge="1" parent="1" source="_dGtOHB_N1j4_Lg7Juu6-9" target="_dGtOHB_N1j4_Lg7Juu6-19">
          <mxGeometry relative="1" as="geometry" />
        </mxCell>
        <mxCell id="_dGtOHB_N1j4_Lg7Juu6-9" value="openEO API" style="html=1;outlineConnect=0;whiteSpace=wrap;fillColor=#f5f5f5;shape=mxgraph.archimate3.application;appType=interface;archiType=square;fontColor=#333333;strokeColor=#666666;" vertex="1" parent="1">
          <mxGeometry x="335" y="805" width="135" height="55" as="geometry" />
        </mxCell>
        <mxCell id="_dGtOHB_N1j4_Lg7Juu6-15" value="depend on" style="edgeStyle=orthogonalEdgeStyle;rounded=0;orthogonalLoop=1;jettySize=auto;html=1;" edge="1" parent="1" source="_dGtOHB_N1j4_Lg7Juu6-10" target="_dGtOHB_N1j4_Lg7Juu6-14">
          <mxGeometry relative="1" as="geometry" />
        </mxCell>
        <mxCell id="_dGtOHB_N1j4_Lg7Juu6-10" value="Core Algorithms" style="html=1;outlineConnect=0;whiteSpace=wrap;fillColor=#dae8fc;shape=mxgraph.archimate3.application;appType=comp;archiType=square;strokeColor=#6c8ebf;" vertex="1" parent="1">
          <mxGeometry x="90" y="660" width="150" height="75" as="geometry" />
        </mxCell>
        <mxCell id="_dGtOHB_N1j4_Lg7Juu6-12" value="depend on" style="edgeStyle=orthogonalEdgeStyle;rounded=0;orthogonalLoop=1;jettySize=auto;html=1;entryX=1;entryY=0.5;entryDx=0;entryDy=0;entryPerimeter=0;" edge="1" parent="1" source="_dGtOHB_N1j4_Lg7Juu6-11" target="_dGtOHB_N1j4_Lg7Juu6-10">
          <mxGeometry relative="1" as="geometry" />
        </mxCell>
        <mxCell id="_dGtOHB_N1j4_Lg7Juu6-13" value="run on" style="edgeStyle=orthogonalEdgeStyle;rounded=0;orthogonalLoop=1;jettySize=auto;html=1;" edge="1" parent="1" source="_dGtOHB_N1j4_Lg7Juu6-11" target="_dGtOHB_N1j4_Lg7Juu6-9">
          <mxGeometry relative="1" as="geometry" />
        </mxCell>
        <mxCell id="_dGtOHB_N1j4_Lg7Juu6-11" value="openEO UDF&#39;s" style="html=1;outlineConnect=0;whiteSpace=wrap;fillColor=#dae8fc;shape=mxgraph.archimate3.application;appType=comp;archiType=square;strokeColor=#6c8ebf;" vertex="1" parent="1">
          <mxGeometry x="325" y="660" width="150" height="75" as="geometry" />
        </mxCell>
        <mxCell id="_dGtOHB_N1j4_Lg7Juu6-14" value="XArray&lt;br&gt;+ Algorithm specific libs" style="html=1;outlineConnect=0;whiteSpace=wrap;fillColor=#d5e8d4;shape=mxgraph.archimate3.application;appType=comp;archiType=square;strokeColor=#82b366;" vertex="1" parent="1">
          <mxGeometry x="90" y="805" width="150" height="55" as="geometry" />
        </mxCell>
        <mxCell id="_dGtOHB_N1j4_Lg7Juu6-17" value="extends" style="edgeStyle=orthogonalEdgeStyle;rounded=0;orthogonalLoop=1;jettySize=auto;html=1;" edge="1" parent="1" source="_dGtOHB_N1j4_Lg7Juu6-16" target="_dGtOHB_N1j4_Lg7Juu6-8">
          <mxGeometry relative="1" as="geometry" />
        </mxCell>
        <mxCell id="_dGtOHB_N1j4_Lg7Juu6-16" value="FuseTS&lt;br&gt;Plugin library" style="html=1;outlineConnect=0;whiteSpace=wrap;fillColor=#fff2cc;shape=mxgraph.archimate3.application;appType=comp;archiType=square;dashed=1;strokeColor=#d6b656;" vertex="1" parent="1">
          <mxGeometry x="470" y="470" width="200" height="65" as="geometry" />
        </mxCell>
        <mxCell id="_dGtOHB_N1j4_Lg7Juu6-19" value="FuseTS On Demand Service" style="html=1;outlineConnect=0;whiteSpace=wrap;fillColor=#d5e8d4;shape=mxgraph.archimate3.application;appType=func;archiType=rounded;strokeColor=#82b366;" vertex="1" parent="1">
          <mxGeometry x="414" y="930" width="150" height="75" as="geometry" />
        </mxCell>
        <mxCell id="_dGtOHB_N1j4_Lg7Juu6-22" style="edgeStyle=orthogonalEdgeStyle;rounded=0;orthogonalLoop=1;jettySize=auto;html=1;" edge="1" parent="1" source="_dGtOHB_N1j4_Lg7Juu6-20" target="_dGtOHB_N1j4_Lg7Juu6-19">
          <mxGeometry relative="1" as="geometry" />
        </mxCell>
        <mxCell id="_dGtOHB_N1j4_Lg7Juu6-20" value="openEO user defined proces" style="html=1;outlineConnect=0;whiteSpace=wrap;fillColor=#dae8fc;shape=mxgraph.archimate3.businessObject;overflow=fill;strokeColor=#6c8ebf;" vertex="1" parent="1">
          <mxGeometry x="510" y="660" width="130" height="70" as="geometry" />
        </mxCell>
      </root>
    </mxGraphModel>
  </diagram>
</mxfile>
